<svg id="Layer_1" data-name="Layer 1" xmlns="http://www.w3.org/2000/svg" viewBox="0 0 72.79 36.42"><defs><style>.cls-1,.cls-2{fill:#7ab929;}.cls-2{fill-rule:evenodd;}</style></defs><title>ara_logo</title><path class="cls-1" d="M292.81,438.49h4.3l0-13c0-6.27.9-11.76,10.45-16.07v-4.1a25.11,25.11,0,0,0-10.71,8.07l0-1s0-5.8.19-8.17h-4.36c.27,2.53.15,7.65.15,11.46l0,22.83Z" transform="translate(-261 -402.89)"/><path class="cls-2" d="M329.56,438.49h4.23a49.48,49.48,0,0,1-.34-7.29V415.85c0-9.07-3.62-12.81-12.21-13A34.87,34.87,0,0,0,311,404.35v3.88a34.18,34.18,0,0,1,10.22-1.65c5.8,0,7.91,3,7.91,8.93v1.77h-.82c-9,0-21.41.55-21.41,12.21,0,3.14,1.57,9.82,11.45,9.82,4.3,0,9.14-2.25,11.05-6.41h.14v5.59Zm-.41-15.41c0,3.75-.2,12.55-10.3,12.55-4,0-7.23-1.71-7.23-6.28,0-7.63,8.87-8.38,16.3-8.38h1.23v2.11Z" transform="translate(-261 -402.89)"/><path class="cls-2" d="M283.64,438.49h4.23a49.48,49.48,0,0,1-.34-7.29V415.85c0-9.07-3.62-12.81-12.21-13a34.75,34.75,0,0,0-10.21,1.46v3.88a34.11,34.11,0,0,1,10.21-1.65c5.8,0,7.91,3,7.91,8.93v1.77h-.81c-9,0-21.42.55-21.42,12.21,0,3.14,1.57,9.82,11.46,9.82,4.29,0,9.14-2.25,11.05-6.41h.13v5.59Zm-.41-15.41c0,3.75-.2,12.55-10.3,12.55-3.95,0-7.22-1.71-7.22-6.28,0-7.63,8.86-8.38,16.3-8.38h1.22v2.11Z" transform="translate(-261 -402.89)"/></svg>