<?xml version="1.0" encoding="UTF-8"?>
<svg width="35px" height="60px" viewBox="0 0 35 60" version="1.1" xmlns="http://www.w3.org/2000/svg" xmlns:xlink="http://www.w3.org/1999/xlink">
    <title>logonen</title>
    <g id="ARA" stroke="none" stroke-width="1" fill="none" fill-rule="evenodd">
        <g id="etusivu_02" transform="translate(-158.000000, -259.000000)" fill-rule="nonzero">
            <g id="logonen" transform="translate(158.000000, 259.000000)">
                <polygon id="Path" fill="#446801" points="17.425 31.6571919 0.924218282 41.1940299 0.917105263 41.191197 0.917105263 22.3880597"></polygon>
                <polygon id="Path" fill="#43A5DD" points="0.959510904 22.3900908 0.9181196 22.4135054 0.876728295 22.3900908 0.9181196 22.3666762"></polygon>
                <polygon id="Path" fill="#2E5053" points="33.9328947 0 33.9328947 23.2763132 33.9226841 23.2835821 17.1466201 13.4270207 10.0881579 9.27650708"></polygon>
                <polygon id="Path" fill="#43A5DD" points="0.959510904 22.3900908 0.9181196 22.4135054 0.876728295 22.3900908 0.9181196 22.3666762"></polygon>
                <polygon id="Path" fill="#43A5DD" points="33.9287352 23.2921986 33.939083 23.2921986 33.939083 23.2790278"></polygon>
                <polygon id="Path" fill="#345000" points="33.9328947 40.4777099 33.9328947 60 20.6124737 52.3255436 20.600977 42.1157249 14.2447118 42.1157249 14.2447118 48.6578144 0.950158417 41.0004503 0.990397039 40.9762362 0.950158417 40.9534464 0.917105263 40.9335053 17.5859545 31.3432836 17.6118222 31.3561028"></polygon>
                <polygon id="Path" fill="#619400" points="33.9328947 22.7722803 17.6153735 32.238806 17.5895114 32.2259049 0.917105263 22.8453864 0.917105263 22.6690717 0.95733513 22.6461364 0.997564996 22.6232012 0.95733513 22.6002659 0.917105263 22.5758972 0.917105263 12.665001 10.4458365 8.95522388 17.3984196 13.0477331 33.9228373 22.7665465"></polygon>
                <polygon id="Path" fill="#538000" points="33.9328947 22.3880597 33.9328947 41.1940299 17.425 31.9356171"></polygon>
                <polygon id="Path" fill="#43A5DD" points="0.959510904 42.0908516 0.9181196 42.1157297 0.876728295 42.0908516 0.9181196 42.067437"></polygon>
                <line x1="0.9181196" y1="42.0915833" x2="0.9181196" y2="42.0915833" id="Path" fill="#43A5DD"></line>
            </g>
        </g>
    </g>
</svg>