<?xml version="1.0" encoding="UTF-8"?>
<svg width="23px" height="41px" viewBox="0 0 23 41" version="1.1" xmlns="http://www.w3.org/2000/svg" xmlns:xlink="http://www.w3.org/1999/xlink">
    <title>logonen</title>
    <g id="ARA" stroke="none" stroke-width="1" fill="none" fill-rule="evenodd">
        <g id="ARA_dt_julki_v05" transform="translate(-126.000000, -8.000000)" fill-rule="nonzero">
            <g id="Group-23" transform="translate(-1.000000, 0.000000)">
                <g id="logonen" transform="translate(127.000000, 8.000000)">
                    <polygon id="Path" fill="#446801" points="11.7875 21.6324145 0.625206485 28.1492537 0.620394737 28.1473179 0.620394737 15.2985075"></polygon>
                    <polygon id="Path" fill="#43A5DD" points="0.649080906 15.2998954 0.621080906 15.3158954 0.593080906 15.2998954 0.621080906 15.2838954"></polygon>
                    <polygon id="Path" fill="#F2F8E7" points="22.9546053 0 22.9546053 15.9054807 22.9476981 15.9104478 11.5991842 9.17513084 6.82434211 6.3389465"></polygon>
                    <polygon id="Path" fill="#43A5DD" points="0.649080906 15.2998954 0.621080906 15.3158954 0.593080906 15.2998954 0.621080906 15.2838954"></polygon>
                    <polygon id="Path" fill="#43A5DD" points="22.9517914 15.9163357 22.9587914 15.9163357 22.9587914 15.9073357"></polygon>
                    <polygon id="Path" fill="#345000" points="22.9546053 27.6597684 22.9546053 41 13.9437322 35.7557881 13.935955 28.7790787 9.63612854 28.7790787 9.63612854 33.2495065 0.642754223 28.0169744 0.669974468 28.0004281 0.642754223 27.984855 0.620394737 27.9712287 11.896381 21.4179104 11.9138797 21.4266703"></polygon>
                    <polygon id="Path" fill="#619400" points="22.9546053 15.5610582 11.9162821 22.0298507 11.8987871 22.021035 0.620394737 15.6110141 0.620394737 15.4905323 0.647609058 15.4748599 0.67482338 15.4591875 0.647609058 15.443515 0.620394737 15.4268631 0.620394737 8.65441738 7.06630118 6.11940299 11.7695191 8.91595094 22.9478017 15.5571401"></polygon>
                    <polygon id="Path" fill="#538000" points="22.9546053 15.2985075 22.9546053 28.1492537 11.7875 21.8226717"></polygon>
                    <polygon id="Path" fill="#43A5DD" points="0.649080906 28.762082 0.621080906 28.779082 0.593080906 28.762082 0.621080906 28.746082"></polygon>
                    <line x1="0.621080906" y1="28.762582" x2="0.621080906" y2="28.762582" id="Path" fill="#43A5DD"></line>
                </g>
            </g>
        </g>
    </g>
</svg>