<?xml version="1.0" encoding="UTF-8"?>
<svg width="100pt" height="100pt" version="1.1" viewBox="0 0 100 100" xmlns="http://www.w3.org/2000/svg">
 <path d="m50 2.5c-26.199 0-47.5 21.301-47.5 47.5s21.301 47.5 47.5 47.5 47.5-21.301 47.5-47.5-21.301-47.5-47.5-47.5zm0 86.398c-2.3008 0-6.8008-6.8008-9.1016-20.199h18.301c-2.3984 13.301-6.8984 20.199-9.1992 20.199zm-10.199-28.797c-0.30078-3.1016-0.39844-6.5-0.39844-10.102s0.19922-7 0.39844-10.102h20.5c0.30078 3.1016 0.39844 6.5 0.39844 10.102s-0.19922 7-0.39844 10.102zm10.199-49c2.3008 0 6.8008 6.8008 9.1016 20.199h-18.203c2.3008-13.301 6.8008-20.199 9.1016-20.199zm18.898 28.797h18.602c0.89844 3.1992 1.3984 6.6016 1.3984 10.102s-0.5 6.8984-1.3984 10.102h-18.602c0.30078-3.3008 0.39844-6.6992 0.39844-10.102 0.003906-3.3984-0.19531-6.8008-0.39844-10.102zm15.102-8.5977h-16.199c-1.1016-6.8984-2.8008-13.102-5.1992-18 9.1992 3.1992 16.797 9.5977 21.398 18zm-46.699-18c-2.3008 4.8984-4.1016 11.102-5.1992 18h-16.102c4.6016-8.4023 12.199-14.801 21.301-18zm-24.801 26.598h18.602c-0.30078 3.3008-0.39844 6.6992-0.39844 10.102 0 3.3984 0.19922 6.8008 0.39844 10.102h-18.602c-0.89844-3.1992-1.3984-6.6016-1.3984-10.102s0.5-6.8984 1.3984-10.102zm3.5 28.801h16.199c1.1016 6.8984 2.8008 13.102 5.1992 18-9.1992-3.1992-16.797-9.5977-21.398-18zm46.699 18c2.3008-4.8984 4.1016-11.102 5.1992-18h16.102c-4.6016 8.4023-12.199 14.801-21.301 18z"/>
</svg>
