<?xml version="1.0" encoding="UTF-8"?>
<svg fill="#FFFFFF" width="100pt" height="100pt" version="1.1" viewBox="0 0 100 100" xmlns="http://www.w3.org/2000/svg">
 <g>
  <path d="m85.938 35.562h-21.484v-22.406c0.019531-3.2109-1.2461-6.293-3.5156-8.5625-2.2734-2.2969-5.375-3.582-8.6094-3.5625h-39.141c-6.6914 0.007812-12.117 5.4336-12.125 12.125v26.094c0.007812 6.6914 5.4336 12.117 12.125 12.125h0.875v7.4531c-0.019531 2.3086 1.3867 4.3867 3.5312 5.2344 0.66797 0.26562 1.375 0.40234 2.0938 0.40625 1.4883 0 2.9141-0.60547 3.9531-1.6719l10.938-10.938v21.875c-0.011719 3.2422 1.2695 6.3516 3.5586 8.6445 2.293 2.2891 5.4023 3.5703 8.6445 3.5586h17.281l11.422 11.359c1.0469 1.0859 2.4922 1.7031 4 1.7031 0.71875-0.003906 1.4258-0.14062 2.0938-0.40625 2.1172-0.85547 3.4961-2.918 3.4844-5.2031v-7.4531h0.875c6.6992 0 12.133-5.4258 12.141-12.125v-26.125c-0.007813-6.6992-5.4414-12.125-12.141-12.125zm-51.812 11.125c-0.62109 0-1.2188 0.24609-1.6562 0.6875l-12.156 12.094c-0.23438 0.27344-0.62109 0.35938-0.95312 0.21875-0.35547-0.13281-0.58203-0.48047-0.5625-0.85938v-9.7969c0-1.293-1.0508-2.3438-2.3438-2.3438h-3.2656c-4.1094 0-7.4375-3.3281-7.4375-7.4375v-26.094c0-4.1094 3.3281-7.4375 7.4375-7.4375h39.141c1.9727-0.003906 3.8633 0.78516 5.25 2.1875 1.4023 1.3867 2.1914 3.2773 2.1875 5.25v26.094c0 4.1094-3.3281 7.4375-7.4375 7.4375zm59.234 27.094c0.007813 4.1094-3.3125 7.4531-7.4219 7.4688h-3.2812c-1.293 0-2.3438 1.0508-2.3438 2.3438v9.7969c0.019531 0.37891-0.20703 0.72656-0.55859 0.86719-0.35156 0.14063-0.75391 0.042969-1.0039-0.24219l-12.141-12.078c-0.43359-0.4375-1.0234-0.68359-1.6406-0.6875h-18.188c-4.1094 0-7.4453-3.3281-7.4531-7.4375v-22.438h13c6.3047-0.011719 11.551-4.8438 12.078-11.125h21.531c4.1094 0 7.4453 3.3281 7.4531 7.4375z"/>
  <path d="m32.078 12.344c-0.60938 0-1.3125 0.10938-2.0156 0.23438-1.5977 0.28125-3.0781 1.0312-4.25 2.1562-1.1328 1.0938-1.1992 2.8867-0.15625 4.0625 0.84375 0.96875 2.0938 0.95312 3.4375 0 0.082031-0.078125 0.17188-0.14453 0.26562-0.20312 0.96094-0.72656 2.1641-1.0586 3.3594-0.92188 0.99219 0.003906 1.8789 0.62891 2.2188 1.5625 0.28516 0.90234-0.058594 1.8789-0.84375 2.4062-0.36328 0.30859-0.74609 0.59375-1.1406 0.85938-2.2539 1.5664-3.2969 4.3711-2.6094 7.0312 0.32812 1.2344 0.90625 1.8906 1.6719 1.8906s1.2969-0.59375 1.6406-1.8125c0.31641-1.2305 1.0156-2.3242 2-3.125 0.8125-0.65625 1.6875-1.2344 2.5-1.8906 2.5195-1.8828 3.1953-5.375 1.5625-8.0625-1.6719-2.9688-4.375-4.0312-7.6406-4.1875z"/>
  <path d="m32.5 33.469c-0.8125-0.074219-1.6172 0.21094-2.2031 0.77734s-0.89453 1.3633-0.84375 2.1758c-0.054687 0.82031 0.24219 1.6289 0.8125 2.2227s1.3633 0.92188 2.1875 0.90234c0.84375 0.046875 1.6641-0.26953 2.2617-0.86328 0.59375-0.59766 0.91016-1.418 0.86328-2.2617 0.039063-0.81641-0.27734-1.6094-0.86719-2.1758-0.58984-0.56641-1.3945-0.85156-2.2109-0.77734z"/>
  <path d="m51.844 57.953c-1.3984 0-2.6562 0.83984-3.1914 2.1328-0.53516 1.2891-0.23828 2.7734 0.75 3.7617 0.98828 0.98828 2.4727 1.2852 3.7617 0.75 1.293-0.53516 2.1328-1.793 2.1328-3.1914-0.007813-1.9023-1.5508-3.4453-3.4531-3.4531z"/>
  <path d="m66.344 57.953c-1.3945 0.007813-2.6484 0.85156-3.1797 2.1406-0.52734 1.293-0.23047 2.7734 0.75781 3.7578 0.98828 0.98438 2.4727 1.2773 3.7617 0.74219 1.2891-0.53516 2.1289-1.793 2.1289-3.1875 0-0.91797-0.36719-1.8008-1.0156-2.4492-0.65234-0.64453-1.5352-1.0078-2.4531-1.0039z"/>
  <path d="m80.859 57.953c-1.3906 0.023437-2.6289 0.88281-3.1445 2.1758-0.51562 1.2891-0.20312 2.7656 0.78906 3.7422 0.99219 0.97266 2.4727 1.2578 3.7539 0.71875 1.2812-0.53906 2.1172-1.793 2.1172-3.1836-0.003906-0.92578-0.37891-1.8125-1.0391-2.4609-0.66016-0.64844-1.5508-1.0039-2.4766-0.99219z"/>
 </g>
</svg>
