<svg xmlns="http://www.w3.org/2000/svg" width="100pt" height="100pt" viewBox="0 0 100 100"><path d="M89.688 47.812l-37.5-37.5c-1.25-1.25-3.125-1.25-4.375 0l-37.5 37.5c-.937.938-1.25 2.188-.625 3.438.313 1.25 1.563 1.874 2.813 1.874h6.25V81.25c0 5.313 4.062 9.376 9.375 9.376H43.75c1.875 0 3.125-1.25 3.125-3.126V68.75c0-1.874 1.25-3.124 3.125-3.124s3.125 1.25 3.125 3.124V87.5c0 1.876 1.25 3.126 3.125 3.126h15.625c5.312 0 9.374-4.063 9.374-9.376V53.126h6.25c1.25 0 2.5-.626 2.813-1.876.625-1.25.313-2.5-.625-3.437zM71.876 84.374h-12.5V68.749c0-5.313-4.062-9.375-9.375-9.375s-9.375 4.062-9.375 9.375v15.625h-12.5c-1.875 0-3.125-1.25-3.125-3.125v-31.25c0-1.875-1.25-3.125-3.125-3.125h-1.875l30-30 30 30h-1.875c-1.875 0-3.125 1.25-3.125 3.125v31.25c0 1.875-1.25 3.125-3.125 3.125z" fill="#fff"/></svg>