<?xml version="1.0" encoding="UTF-8"?>
<svg width="100pt" height="100pt" version="1.1" viewBox="0 0 100 100" xmlns="http://www.w3.org/2000/svg">
 <path d="m89.688 47.812-37.5-37.5c-1.25-1.25-3.125-1.25-4.375 0l-37.5 37.5c-0.9375 0.9375-1.25 2.1875-0.625 3.4375 0.3125 1.25 1.5625 1.875 2.8125 1.875h6.25v28.125c0 5.3125 4.0625 9.375 9.375 9.375h15.625c1.875 0 3.125-1.25 3.125-3.125v-18.75c0-1.875 1.25-3.125 3.125-3.125s3.125 1.25 3.125 3.125v18.75c0 1.875 1.25 3.125 3.125 3.125h15.625c5.3125 0 9.375-4.0625 9.375-9.375v-28.125h6.25c1.25 0 2.5-0.625 2.8125-1.875 0.625-1.25 0.3125-2.5-0.625-3.4375zm-17.812 36.562h-12.5v-15.625c0-5.3125-4.0625-9.375-9.375-9.375s-9.375 4.0625-9.375 9.375v15.625h-12.5c-1.875 0-3.125-1.25-3.125-3.125v-31.25c0-1.875-1.25-3.125-3.125-3.125h-1.875l30-30 30 30h-1.875c-1.875 0-3.125 1.25-3.125 3.125v31.25c0 1.875-1.25 3.125-3.125 3.125z"/>
</svg>
