<?xml version="1.0" encoding="UTF-8"?>
<svg width="100pt" height="100pt" version="1.1" viewBox="0 0 100 100" xmlns="http://www.w3.org/2000/svg">
 <g>
  <path d="m44.527 29.551c-0.035156-4.0352 3.2539-7.3555 7.2891-7.3906 4.1016 0 7.3203 3.2188 7.3203 7.3555 0.035156 4.0352-3.1875 7.3555-7.1875 7.4219-4.0352 0.035156-7.3555-3.2891-7.4219-7.3867z"/>
  <path d="m62.32 71.512c-0.10156 0.60938-0.47656 1.2539-0.91406 1.7305-2.6758 2.7461-5.8984 4.3711-9.7617 4.4414-1.7305 0.035156-3.5234 0.10156-5.1875-0.26953-4.4062-0.91406-6.9141-4.6758-6.2031-9.082 0.84766-5.3203 1.7969-10.574 2.7109-15.863 0.26953-1.5938 0.60938-3.1875 0.8125-4.7812 0.10156-0.57812 0.035156-1.2188-0.066406-1.7617-0.20313-1.0859-0.74609-1.5586-1.7969-1.7305-0.57812-0.066406-1.1523-0.035156-1.6953-0.16797-0.67969-0.20312-1.457-0.44141-2-0.84766-0.94922-0.71094-0.74609-2.1016 0.33984-2.5742 0.54297-0.26953 1.2188-0.40625 1.832-0.40625 2.4062-0.035157 4.8477 0 7.2188 0h7.2188c1.7305 0 2.6094 0.88281 2.8477 2.6094 0.23828 1.7305-0.375 3.3555-0.67969 5.0156-0.88281 4.9844-1.832 9.9297-2.7109 14.879-0.30469 1.6953-0.60938 3.3906-0.88281 5.1172-0.066406 0.50781-0.035156 1.0859 0 1.5938 0.30469 2.2031 1.5586 3.0156 3.6602 2.4727 0.64453-0.16797 1.2188-0.54297 1.832-0.84766 0.57812-0.26953 1.1523-0.64453 1.7617-0.88281 1.0547-0.41016 1.9023 0.26953 1.6641 1.3555z"/>
  <path d="m15.863 98.945h-0.39062c-3.7852-0.023437-6.1094-1.0117-7.1016-3.0273-0.35547-0.72656-1.0039-2.6367 0.64453-4.8086l5.2617-7.0273c0.625-0.80469 0.98047-1.3008 1.125-1.6797-8.6641-9.0234-13.426-20.816-13.426-33.301 0-26.492 21.551-48.043 48.043-48.043 26.473 0 48.008 21.551 48.008 48.043 0 26.473-21.535 48.008-48.008 48.008-5.1992 0-10.305-0.83203-15.176-2.4688-0.22266 0.050781-0.36328 0.10938-0.4375 0.15234-1.9219 0.90234-3.6328 1.5781-5.4414 2.1797-0.63281 0.19922-1.2188 0.35156-1.8047 0.50391l-0.8125 0.21484c-3.0586 0.83203-6.582 1.2539-10.484 1.2539zm34.152-91.109c-22.754 0-41.266 18.512-41.266 41.266 0 10.98 4.2891 21.336 12.078 29.16l0.41016 0.41406 0.25 0.52344c0.78125 1.6445 0.91016 3.4609 0.37109 5.2539-0.53125 1.5352-1.3242 2.6211-2.168 3.7031l-2.9727 4.0039c2.9531-0.054687 5.5859-0.39062 7.8359-1.0078l0.91016-0.24219c0.46875-0.11719 0.9375-0.23828 1.4062-0.38672 1.5156-0.50781 2.9883-1.0898 4.457-1.7734 0.83594-0.47266 2.0312-0.81641 3.4414-0.9375l1.0547-0.011719 0.55078 0.19531c4.3633 1.5469 8.9531 2.332 13.641 2.332 22.734 0 41.23-18.496 41.23-41.23 0-22.75-18.496-41.262-41.23-41.262z"/>
 </g>
</svg>
