<svg width="98" height="98" viewBox="0 0 98 98" fill="none" xmlns="http://www.w3.org/2000/svg">
<path fill-rule="evenodd" clip-rule="evenodd" d="M14.8795 98H14.4892C10.706 97.9766 8.38305 96.9871 7.39137 94.9692C7.03609 94.2418 6.38801 92.3295 8.03556 90.1551L13.2945 83.1196C13.9191 82.314 14.2744 81.8173 14.4189 81.438C5.75937 72.4042 1 60.5979 1 48.0985C1 21.5759 22.5395 0 49.0175 0C75.4764 0 97 21.5759 97 48.0985C97 74.6021 75.4764 96.162 49.0175 96.162C43.821 96.162 38.718 95.329 33.8495 93.6903C33.6271 93.7412 33.4864 93.7999 33.4123 93.8428C31.4914 94.7462 29.7814 95.4228 27.9738 96.0251C27.342 96.2243 26.7569 96.3767 26.172 96.5291L26.17 96.5296L25.358 96.7447C22.301 97.5776 18.7794 98 14.8795 98ZM16.9685 95H16.6021C13.0506 94.978 10.8698 94.0491 9.93884 92.1548C9.60531 91.4719 8.9969 89.6766 10.5436 87.6353L15.4805 81.0307C16.0669 80.2744 16.4005 79.8081 16.5361 79.452C8.40675 70.9713 3.93878 59.8879 3.93878 48.1537C3.93878 23.2549 24.1596 3 49.0164 3C73.8554 3 94.0612 23.2549 94.0612 48.1537C94.0612 73.0346 73.8554 93.2745 49.0164 93.2745C44.1381 93.2745 39.3475 92.4925 34.7771 90.9542C34.5683 91.0019 34.4362 91.057 34.3666 91.0973C32.5633 91.9455 30.958 92.5806 29.2611 93.146C28.668 93.333 28.1187 93.4761 27.5696 93.6192L27.5678 93.6196L26.8054 93.8215C23.9356 94.6035 20.6297 95 16.9685 95ZM22.8781 78.7776C22.8536 78.4814 22.8093 78.1875 22.7453 77.8969C22.8834 78.0127 23.0224 78.1276 23.1622 78.2417L22.8781 78.7776Z" fill="#538000"/>
<path fill-rule="evenodd" clip-rule="evenodd" d="M43.551 28.4925C43.5157 24.4573 46.8049 21.137 50.8401 21.1019C54.9417 21.1019 58.1604 24.3207 58.1604 28.4574C58.1954 32.4926 54.9729 35.8129 50.9729 35.8793C46.9376 35.9145 43.6174 32.5901 43.551 28.4925ZM60.4299 72.1841C60.8674 71.7075 61.2424 71.063 61.344 70.4536C61.5822 69.3676 60.7347 68.6886 59.6801 69.0987C59.3213 69.239 58.9749 69.4267 58.6325 69.6122L58.6309 69.6131L58.6274 69.6149C58.39 69.7437 58.1545 69.8714 57.9183 69.9815C57.7555 70.0625 57.5955 70.1484 57.4359 70.234L57.4304 70.2369L57.4253 70.2397C56.9882 70.4746 56.5559 70.7068 56.0864 70.8292C53.9847 71.3721 52.7308 70.5596 52.4262 68.3565C52.391 67.8486 52.3597 67.2705 52.4262 66.7627C52.6995 65.0371 53.0039 63.3429 53.3085 61.6486L53.309 61.6456C53.7395 59.2213 54.1869 56.7979 54.635 54.3705L54.6382 54.3535L54.6386 54.3511L54.6415 54.335L54.6449 54.3168L54.6511 54.2829C55.1124 51.7836 55.5746 49.28 56.0199 46.7665C56.1005 46.3269 56.2028 45.8898 56.3052 45.4525L56.3054 45.4514L56.3058 45.4504L56.3062 45.4488L56.3064 45.4477L56.3064 45.4475C56.5903 44.2351 56.8745 43.0214 56.6996 41.7509C56.4613 40.0243 55.5824 39.1415 53.8519 39.1415H46.6331C45.8503 39.1415 45.0599 39.1377 44.2656 39.1337H44.2542H44.2507H44.2486L44.2453 39.1337C42.6402 39.1259 41.0193 39.118 39.4143 39.1415C38.8012 39.1415 38.1252 39.2782 37.5823 39.5477C36.4963 40.0203 36.2932 41.411 37.2424 42.1219C37.7854 42.5282 38.5627 42.7665 39.2424 42.9696C39.5841 43.0532 39.9383 43.0718 40.2981 43.0907L40.2983 43.0907C40.5101 43.1018 40.7236 43.113 40.9377 43.1376C41.9885 43.3095 42.5315 43.7822 42.7346 44.8681C42.8362 45.411 42.9026 46.0517 42.801 46.6298C42.6671 47.6803 42.4737 48.7309 42.2804 49.7815L42.2794 49.7869L42.2764 49.8031L42.2724 49.8247C42.1752 50.3534 42.078 50.8822 41.9885 51.411C41.747 52.8087 41.503 54.2039 41.2591 55.5985L41.2532 55.6325L41.2491 55.6549L41.2476 55.6643C40.5723 59.5252 39.8978 63.3818 39.2776 67.274C38.5665 71.6802 41.0745 75.4419 45.4807 76.356C47.0373 76.7031 48.7067 76.6674 50.3331 76.6326H50.3333L50.6682 76.6255C54.5315 76.5552 57.754 74.9302 60.4299 72.1841Z" fill="#538000"/>
</svg>
