<svg width="98" height="98" fill="none" xmlns="http://www.w3.org/2000/svg"><path fill-rule="evenodd" clip-rule="evenodd" d="M14.8629 97.945L14.4724 97.945C10.6872 97.9216 8.36298 96.9333 7.37078 94.9177C7.01531 94.1911 6.36688 92.281 8.01531 90.1091L13.277 83.0818C13.902 82.2771 14.2575 81.781 14.402 81.4021C5.73791 72.3787 0.976013 60.5861 0.976013 48.1011C0.976013 21.6091 22.527 0.0581055 49.019 0.0581055C75.492 0.0581055 97.027 21.6091 97.027 48.1011C97.027 74.5741 75.492 96.1091 49.019 96.1091C43.8198 96.1091 38.714 95.2771 33.843 93.6403C33.6204 93.6911 33.4797 93.7497 33.4055 93.7926C31.4836 94.695 29.7727 95.3708 27.9641 95.9724C27.332 96.1713 26.7466 96.3236 26.1614 96.4758L26.1594 96.4763L25.3469 96.6911C22.2883 97.5231 18.7649 97.945 14.8629 97.945ZM21.1612 80.6846C21.1351 80.3694 21.0879 80.0567 21.0197 79.7475C21.1669 79.8707 21.315 79.993 21.464 80.1144L21.1612 80.6846ZM43.527 28.5512C43.4918 24.516 46.7809 21.1957 50.8161 21.1606C54.9177 21.1606 58.1364 24.3794 58.1364 28.5161C58.1715 32.5513 54.9489 35.8716 50.9489 35.938C46.9137 35.9732 43.5934 32.6488 43.527 28.5512ZM60.4059 72.2428C60.8434 71.7662 61.2184 71.1217 61.32 70.5123C61.5582 69.4263 60.7108 68.7473 59.6561 69.1574C59.2956 69.2984 58.9475 69.4872 58.6035 69.6736C58.366 69.8024 58.1305 69.9301 57.8944 70.0402C57.7279 70.123 57.5643 70.2109 57.4013 70.2984C56.9642 70.5333 56.5319 70.7655 56.0624 70.8879C53.9608 71.4308 52.7069 70.6183 52.4022 68.4152C52.367 67.9073 52.3358 67.3292 52.4022 66.8214C52.6756 65.0948 52.9803 63.3996 53.285 61.7043C53.7166 59.2736 54.1652 56.8437 54.6146 54.4098C55.0802 51.8879 55.5466 49.3616 55.9959 46.8252C56.0768 46.3844 56.1795 45.946 56.2822 45.5075C56.5662 44.2946 56.8506 43.0806 56.6756 41.8096C56.4373 40.083 55.5584 39.2002 53.8279 39.2002H46.6091C45.8226 39.2002 45.0283 39.1963 44.2302 39.1924C42.6222 39.1846 40.9983 39.1767 39.3903 39.2002C38.7771 39.2002 38.1012 39.3369 37.5583 39.6064C36.4723 40.079 36.2692 41.4697 37.2184 42.1806C37.7614 42.5869 38.5387 42.8252 39.2184 43.0283C39.5603 43.1119 39.9146 43.1305 40.2745 43.1494C40.4861 43.1605 40.6996 43.1717 40.9137 43.1963C41.9645 43.3682 42.5075 43.8409 42.7106 44.9268C42.8122 45.4697 42.8786 46.1104 42.777 46.6885C42.6429 47.7408 42.4492 48.7932 42.2554 49.8456C42.1558 50.3869 42.0561 50.9283 41.9645 51.4697C41.7197 52.8862 41.4724 54.3002 41.2252 55.7136C40.5494 59.5776 39.8743 63.4373 39.2536 67.3327C38.5426 71.7389 41.0505 75.5006 45.4567 76.4147C47.0137 76.7619 48.6834 76.7261 50.3093 76.6913C50.4212 76.6889 50.5328 76.6865 50.6442 76.6842C54.5075 76.6139 57.7301 74.9889 60.4059 72.2428Z" fill="#538000"/></svg>