<?xml version="1.0" encoding="UTF-8"?>
<svg width="100pt" height="100pt" version="1.1" viewBox="0 0 100 100" xmlns="http://www.w3.org/2000/svg">
 <g>
  <path d="m90.148 13.422l-24.059-11.781c-1.918-0.9375-4.1836-0.82422-5.9961 0.30859-1.8125 1.1289-2.9141 3.1133-2.9141 5.25v7.1406h-16.809c-3.3828 0.003906-6.125 2.7461-6.1328 6.1289v6.4297c0 1.3828 1.1211 2.5 2.5 2.5 1.3828 0 2.5-1.1172 2.5-2.5v-6.4375c0.007813-0.62109 0.51172-1.125 1.1328-1.1328h16.809v61.344h-16.809c-0.62109-0.007813-1.125-0.51172-1.1328-1.1328v-6.4297c0-1.3789-1.1172-2.5-2.5-2.5-1.3789 0-2.5 1.1211-2.5 2.5v6.4297c0.007813 3.3828 2.75 6.125 6.1328 6.1328h16.809v7.1406-0.003906c-0.003907 2.1406 1.0938 4.1289 2.9102 5.2617 1.8125 1.1289 4.082 1.2422 6 0.30078l24.059-11.793c2.2852-1.1289 3.7422-3.4492 3.7734-6v-61.109c-0.011719-2.5664-1.4727-4.9102-3.7734-6.0469zm-1.2266 67.109c-0.011719 0.66797-0.39844 1.2734-1 1.5586l-24.031 11.781c-0.37109 0.17969-0.80469 0.15625-1.1523-0.0625-0.34766-0.21875-0.55859-0.59766-0.55859-1.0078v-85.609c-0.003907-0.41016 0.21094-0.78906 0.55859-1 0.34766-0.22656 0.78516-0.25 1.1523-0.0625l24.109 11.781c0.60547 0.28516 0.99219 0.89062 1 1.5586z"/>
  <path d="m70.219 44.648c-1.3789 0-2.5 1.1211-2.5 2.5v5.7031c0 1.3789 1.1211 2.5 2.5 2.5 1.3828 0 2.5-1.1211 2.5-2.5v-5.7031c0-0.66016-0.26172-1.2969-0.73047-1.7656s-1.1055-0.73437-1.7695-0.73437z"/>
  <path d="m26 28.59c-0.92188 0.39453-1.5195 1.2969-1.5195 2.3008v9.1797h-15.902c-1.3789 0-2.5 1.1172-2.5 2.5v14.859c0 0.66406 0.26562 1.3008 0.73438 1.7695s1.1055 0.73047 1.7656 0.73047h15.941v9.1797c0 1.0039 0.59766 1.9141 1.5234 2.3086 0.92578 0.39062 1.9961 0.19141 2.7188-0.50781l19.797-19.109c0.49219-0.47266 0.76562-1.1211 0.76562-1.8008s-0.27344-1.3281-0.76562-1.8008l-19.809-19.109c-0.73047-0.71094-1.8164-0.91016-2.75-0.5zm3.4805 14v-5.8008l13.75 13.211-13.711 13.23v-5.8008c0-0.66406-0.26172-1.2969-0.73047-1.7656s-1.1055-0.73437-1.7695-0.73437h-15.941v-9.8594h15.922c0.66797 0.003907 1.3086-0.25781 1.7812-0.72656s0.73828-1.1055 0.73828-1.7734z"/>
 </g>
</svg>
