<svg xmlns="http://www.w3.org/2000/svg" width="100pt" height="100pt" viewBox="0 0 100 100"><g fill="#ffffe8"><path d="M90.148 13.422L66.089 1.641a6.185 6.185 0 00-5.996.309 6.184 6.184 0 00-2.914 5.25v7.14h-16.81a6.142 6.142 0 00-6.132 6.13v6.429a2.5 2.5 0 105 0V20.46a1.149 1.149 0 011.133-1.133h16.809v61.344h-16.81a1.149 1.149 0 01-1.132-1.132v-6.43a2.5 2.5 0 10-5 0v6.43a6.148 6.148 0 006.133 6.132h16.809v7.141-.004a6.182 6.182 0 008.91 5.563l24.059-11.793a6.783 6.783 0 003.773-6v-61.11a6.78 6.78 0 00-3.773-6.046zm-1.227 67.109a1.758 1.758 0 01-1 1.559l-24.03 11.78a1.19 1.19 0 01-1.71-1.07V7.191c-.005-.41.21-.789.557-1 .348-.226.785-.25 1.152-.062L88 17.909c.605.286.992.891 1 1.56z"/><path d="M70.219 44.648a2.502 2.502 0 00-2.5 2.5v5.703a2.5 2.5 0 105 0v-5.703a2.498 2.498 0 00-2.5-2.5zM26 28.59a2.5 2.5 0 00-1.52 2.3v9.18H8.579a2.5 2.5 0 00-2.5 2.5v14.86a2.504 2.504 0 002.5 2.5H24.52v9.18c0 1.003.598 1.913 1.524 2.308.926.39 1.996.191 2.719-.508l19.797-19.109c.492-.473.765-1.121.765-1.8s-.273-1.329-.765-1.802L28.749 29.09a2.5 2.5 0 00-2.75-.5zm3.48 14v-5.8L43.23 50 29.52 63.23v-5.8c0-.665-.262-1.298-.731-1.766s-1.105-.735-1.77-.735H11.08V45.07H27a2.497 2.497 0 002.52-2.5z"/></g></svg>