<?xml version="1.0" encoding="UTF-8"?>
<svg width="100pt" height="100pt" version="1.1" viewBox="0 0 100 100" xmlns="http://www.w3.org/2000/svg">
 <path d="m91.055 75.164-9.125-9.125c-2.6758-2.6758-6.7266-3.4883-10.184-1.9453-1.7383 0.77734-3.5781 1.8633-5.1328 3.418-10.43 10.43-44.559-23.699-34.129-34.129 1.5508-1.5508 2.6406-3.3906 3.418-5.1328 1.543-3.457 0.73047-7.5078-1.9453-10.184l-9.1211-9.1211c-4.4102-4.4102-11.793-3.2383-14.699 2.2812-3.0391 5.7734-5.3281 13.949-2.8086 23.961 5.3828 21.371 36.109 52.102 57.484 57.484 10.012 2.5195 18.188 0.23047 23.961-2.8086 5.5195-2.9062 6.6914-10.285 2.2812-14.699z"/>
</svg>
