<svg xmlns="http://www.w3.org/2000/svg" width="100pt" height="100pt" viewBox="0 0 100 100"><g fill="#fff"><path d="M49.555 32.277c.621-1.527.969-3.191.969-4.938 0-7.242-5.864-13.132-13.066-13.132-7.2 0-13.06 5.89-13.06 13.133 0 1.777.36 3.472.997 5.019-3.328 2.016-5.328 5.125-5.328 8.492V51.52a2.762 2.762 0 105.523 0V40.851c0-1.476 1.113-2.926 2.953-3.941 2.336 2.199 5.465 3.558 8.91 3.558 3.48 0 6.633-1.379 8.977-3.613 1.91 1.016 3.063 2.492 3.063 4.004v10.66a2.762 2.762 0 105.523 0V40.855c0-3.422-2.047-6.566-5.461-8.578zm-12.102 2.668c-4.156 0-7.535-3.41-7.535-7.606 0-4.195 3.379-7.609 7.535-7.609 4.16 0 7.543 3.414 7.543 7.61 0 4.19-3.383 7.605-7.543 7.605z"/><path d="M81.953 70.699a8.046 8.046 0 00-5.738-2.371 8.13 8.13 0 00-3.375.734l-7.414-7.418c5.757-6.672 8.906-15.082 8.906-23.98 0-9.828-3.828-19.066-10.777-26.012C56.605 4.703 47.367.875 37.543.875c-9.828 0-19.066 3.828-26.016 10.777C4.577 18.598.75 27.84.75 37.664c0 9.824 3.828 19.066 10.777 26.012 6.945 6.95 16.188 10.777 26.012 10.777 8.902 0 17.312-3.148 23.98-8.902l7.383 7.387c-1.442 3.015-.922 6.742 1.57 9.242l14.637 14.637c1.527 1.527 3.566 2.367 5.738 2.367s4.207-.84 5.739-2.367a8.062 8.062 0 002.37-5.742c0-2.176-.843-4.211-2.37-5.739zM15.43 59.773c-5.906-5.906-9.16-13.758-9.16-22.109 0-8.356 3.25-16.203 9.16-22.109 5.906-5.906 13.758-9.16 22.109-9.16 8.352 0 16.203 3.25 22.109 9.16 5.906 5.906 9.16 13.758 9.16 22.109 0 8.352-3.25 16.203-9.156 22.105-.004 0-.004 0-.004.004-.004 0-.004.004-.004.004-5.906 5.906-13.758 9.156-22.109 9.156-8.348 0-16.199-3.254-22.105-9.16zM92.684 92.91c-.969.969-2.7.969-3.672 0L74.383 78.277a2.604 2.604 0 01-.004-3.672 2.569 2.569 0 011.836-.754c.7 0 1.348.266 1.832.754l14.637 14.637a2.56 2.56 0 01.754 1.832 2.608 2.608 0 01-.754 1.836z"/></g></svg>