<?xml version="1.0" encoding="UTF-8"?>
<svg width="100pt" height="100pt" version="1.1" viewBox="0 0 100 100" xmlns="http://www.w3.org/2000/svg">
 <g>
  <path d="m49.555 32.277c0.62109-1.5273 0.96875-3.1914 0.96875-4.9375 0-7.2422-5.8633-13.133-13.066-13.133-7.1992 0-13.059 5.8906-13.059 13.133 0 1.7773 0.35937 3.4727 0.99609 5.0195-3.3281 2.0156-5.3281 5.125-5.3281 8.4922v10.668c0 1.5234 1.2344 2.7617 2.7617 2.7617s2.7617-1.2344 2.7617-2.7617v-10.668c0-1.4766 1.1133-2.9258 2.9531-3.9414 2.3359 2.1992 5.4648 3.5586 8.9102 3.5586 3.4805 0 6.6328-1.3789 8.9766-3.6133 1.9102 1.0156 3.0625 2.4922 3.0625 4.0039v10.66c0 1.5234 1.2344 2.7617 2.7617 2.7617s2.7617-1.2344 2.7617-2.7617v-10.664c0-3.4219-2.0469-6.5664-5.4609-8.5781zm-12.102 2.668c-4.1562 0-7.5352-3.4102-7.5352-7.6055 0-4.1953 3.3789-7.6094 7.5352-7.6094 4.1602 0 7.543 3.4141 7.543 7.6094 0 4.1914-3.3828 7.6055-7.543 7.6055z"/>
  <path d="m81.953 70.699c-1.5273-1.5312-3.5664-2.3711-5.7383-2.3711-1.1836 0-2.3281 0.25781-3.375 0.73438l-7.4141-7.418c5.7578-6.6719 8.9062-15.082 8.9062-23.98 0-9.8281-3.8281-19.066-10.777-26.012-6.9492-6.9492-16.188-10.777-26.012-10.777-9.8281 0-19.066 3.8281-26.016 10.777-6.9492 6.9453-10.777 16.188-10.777 26.012 0 9.8242 3.8281 19.066 10.777 26.012 6.9453 6.9492 16.188 10.777 26.012 10.777 8.9023 0 17.312-3.1484 23.98-8.9023l7.3828 7.3867c-1.4414 3.0156-0.92188 6.7422 1.5703 9.2422l14.637 14.637c1.5273 1.5273 3.5664 2.3672 5.7383 2.3672s4.207-0.83984 5.7383-2.3672c1.5312-1.5312 2.3711-3.5703 2.3711-5.7422 0-2.1758-0.84375-4.2109-2.3711-5.7383zm-66.523-10.926c-5.9062-5.9062-9.1602-13.758-9.1602-22.109 0-8.3555 3.25-16.203 9.1602-22.109 5.9062-5.9062 13.758-9.1602 22.109-9.1602 8.3516 0 16.203 3.25 22.109 9.1602 5.9062 5.9062 9.1602 13.758 9.1602 22.109 0 8.3516-3.25 16.203-9.1562 22.105-0.003906 0-0.003906 0-0.003906 0.003907-0.003907 0-0.003907 0.003906-0.003907 0.003906-5.9062 5.9062-13.758 9.1562-22.109 9.1562-8.3477 0-16.199-3.2539-22.105-9.1602zm77.254 33.137c-0.96875 0.96875-2.6992 0.96875-3.6719 0l-14.629-14.633c-1.0117-1.0117-1.0117-2.6602-0.003906-3.6719 0.48828-0.48828 1.1367-0.75391 1.8359-0.75391 0.69922 0 1.3477 0.26563 1.832 0.75391l14.637 14.637c0.48828 0.48437 0.75391 1.1367 0.75391 1.832-0.003906 0.69531-0.26953 1.3477-0.75391 1.8359z"/>
 </g>
</svg>
