<svg xmlns="http://www.w3.org/2000/svg" width="100pt" height="100pt" viewBox="0 0 100 100"><g fill="#fff"><path d="M67.312 53.312a14.056 14.056 0 002.281-7.688A14.375 14.375 0 1055.218 60c2.73 0 5.403-.789 7.688-2.28l6.969 7c.586.589 1.386.925 2.218.925s1.633-.336 2.22-.926c.589-.586.925-1.387.925-2.219s-.336-1.632-.926-2.218zm-20.219-7.688a8.126 8.126 0 118.125 8.125 8.154 8.154 0 01-8.125-8.125z"/><path d="M87.031 20.094L70.969 4.032a3.122 3.122 0 00-2.219-.906H35.97a7.874 7.874 0 00-7.845 7.844v4.656h-4.687a7.842 7.842 0 00-7.813 7.844v65.625a7.842 7.842 0 007.813 7.78h43.75A7.842 7.842 0 0075 89.033v-4.656h5.094a7.874 7.874 0 007.844-7.844v-54.22a3.282 3.282 0 00-.906-2.218zm-15.156-6.313l5.406 5.407h-5.406zm-3.125 75.25c.008.418-.152.825-.445 1.125-.297.301-.7.47-1.118.47h-43.75a1.57 1.57 0 01-1.117-.47 1.572 1.572 0 01-.445-1.125V23.406a1.56 1.56 0 011.562-1.53h4.688V76.53a7.874 7.874 0 007.844 7.844h32.78zm11.344-10.906H35.969a1.595 1.595 0 01-1.594-1.593V10.907a1.596 1.596 0 011.594-1.532h29.656v12.938c0 .829.328 1.625.914 2.211a3.128 3.128 0 002.211.914h12.938v51.094c0 .422-.168.829-.469 1.125-.297.301-.703.47-1.125.47z"/></g></svg>